<svg width="120" height="22" viewBox="0 0 120 22" fill="none" xmlns="http://www.w3.org/2000/svg">
<path d="M24.194 0.680176H31.8045C37.5502 0.680176 42.2879 5.19106 42.2879 11.0124C42.2879 16.8085 37.525 21.3445 31.8045 21.3445H24.194V0.680176ZM29.5617 16.7833H30.7713C33.9717 16.7833 36.6934 15.0444 36.6934 11.0124C36.6934 7.3079 34.2489 5.24146 30.8217 5.24146H29.5617V16.7833Z" fill="#0A1F44"/>
<path d="M47.0261 0.680176H52.293L56.4762 11.718L60.9115 0.680176H66.254L69.3789 21.3194H64.0364L62.5243 9.42474H62.4739L57.5094 21.3194H55.3674L50.6297 9.42474H50.5793L48.8657 21.3194H43.5232L47.0261 0.680176Z" fill="#0A1F44"/>
<path d="M77.3173 21.3445H71.9496V0.680176H77.3173V21.3445Z" fill="#0A1F44"/>
<path d="M102.896 10.6346C102.896 17.3127 98.1076 22 91.4799 22C84.8522 22 80.0641 17.2875 80.0641 10.6346C80.0641 4.38488 85.5326 0 91.4799 0C97.4272 0 102.896 4.38488 102.896 10.6346ZM85.6586 10.6598C85.6586 14.2131 88.3046 16.8339 91.5051 16.8339C94.7307 16.8339 97.3516 14.2383 97.3516 10.6598C97.3516 7.81214 94.7307 5.21649 91.5051 5.21649C88.2794 5.21649 85.6586 7.81214 85.6586 10.6598Z" fill="#0A1F44"/>
<path d="M116.327 5.99776C115.345 5.19135 114.085 4.63694 112.749 4.63694C111.766 4.63694 110.456 5.21655 110.456 6.35057C110.456 7.56019 111.892 8.039 112.825 8.34141L114.185 8.74461C117.058 9.60143 119.276 11.0379 119.276 14.3895C119.276 16.456 118.772 18.5476 117.134 19.9588C115.521 21.3196 113.354 21.8993 111.262 21.8993C108.666 21.8993 106.121 21.0172 104.004 19.5556L106.298 15.2211C107.633 16.4056 109.221 17.3632 111.061 17.3632C112.321 17.3632 113.656 16.7332 113.656 15.2967C113.656 13.7847 111.539 13.2807 110.405 12.9531C107.028 11.9955 104.836 11.1135 104.836 7.13178C104.836 2.94851 107.81 0.20166 111.943 0.20166C114.034 0.20166 116.579 0.856872 118.394 1.89009L116.327 5.99776Z" fill="#0A1F44"/>
<path d="M7.91469 17.7409L6.47826 21.3445H0.782959L8.7211 0.680176H14.5928L22.3797 21.3193H16.634L15.2984 17.7157H7.91469V17.7409ZM11.6444 7.05589H11.594L9.37631 13.6332H13.8368L11.6444 7.05589Z" fill="#FF8C00"/>
</svg>
